<svg xmlns="http://www.w3.org/2000/svg" width="48" height="48" viewBox="0 0 48 48" fill="none">
  <rect width="48" height="48" rx="24" fill="#E9EFE6"/>
  <path d="M24 12C17.373 12 12 17.373 12 24C12 30.627 17.373 36 24 36C30.627 36 36 30.627 36 24C36 17.373 30.627 12 24 12ZM16.8 30.072C17.648 28.92 21.696 27.6 24 27.6C26.304 27.6 30.36 28.92 31.2 30.072C29.592 31.584 26.952 32.4 24 32.4C21.048 32.4 18.408 31.584 16.8 30.072ZM24 24C25.272 24 26.4 23.472 27.192 22.584C27.984 21.696 28.4 20.52 28.4 19.2C28.4 17.88 27.984 16.704 27.192 15.816C26.4 14.928 25.272 14.4 24 14.4C22.728 14.4 21.6 14.928 20.808 15.816C20.016 16.704 19.6 17.88 19.6 19.2C19.6 20.52 20.016 21.696 20.808 22.584C21.6 23.472 22.728 24 24 24ZM33.6 24C33.6 24.264 33.6 24.528 33.576 24.792C33.36 24.696 33.144 24.6 32.928 24.528C32.688 24.432 32.424 24.36 32.16 24.288C31.824 24.192 31.488 24.12 31.152 24.048C30.84 23.976 30.552 23.928 30.24 23.88C30.672 23.04 30.912 22.104 30.912 19.2C30.912 18.192 30.72 17.232 30.36 16.368C30.648 16.152 30.96 15.96 31.296 15.768C31.608 15.6 31.944 15.456 32.28 15.336C32.64 15.192 33 15.096 33.36 15C33.504 15.624 33.6 16.296 33.6 17.004V24ZM14.4 24V17.004C14.4 16.296 14.496 15.624 14.64 15C15 15.096 15.36 15.192 15.72 15.336C16.056 15.456 16.392 15.6 16.704 15.768C17.04 15.96 17.352 16.152 17.64 16.368C17.28 17.232 17.088 18.192 17.088 19.2C17.088 22.104 17.328 23.04 17.76 23.88C17.448 23.928 17.16 23.976 16.848 24.048C16.512 24.12 16.176 24.192 15.84 24.288C15.576 24.36 15.312 24.432 15.072 24.528C14.856 24.6 14.64 24.696 14.424 24.792C14.4 24.528 14.4 24.264 14.4 24Z" fill="#44624A"/>
</svg> 